<?xml version="1.0" encoding="utf-8"?>
<!-- Generator: Adobe Illustrator 21.0.0, SVG Export Plug-In . SVG Version: 6.00 Build 0)  -->
<svg version="1.1" id="图层_1" xmlns="http://www.w3.org/2000/svg" xmlns:xlink="http://www.w3.org/1999/xlink" x="0px" y="0px"
	 viewBox="0 0 1024 1024" style="enable-background:new 0 0 1024 1024;" xml:space="preserve">
<style type="text/css">
	.st0{fill:#BFBFBF;}
</style>
<g id="app-banner" transform="translate(-276.000000, -294.000000)">
	<g id="banner">
		<g id="Group-2-Copy" transform="translate(116.000000, 160.000000)">
			<g id="logo" transform="translate(160.000000, 134.000000)">
				<g id="logo-1">
					<g id="形状">
						<polygon id="Fill-6" class="st0" points="249,552.8 219.4,552.8 219.4,340.8 603.8,112.5 633,129.6 249,357.6 						"/>
						<polygon id="Fill-11" class="st0" points="903.8,726.3 874.2,746.4 874.2,282.3 714.2,196.9 342.2,417.8 342.2,606.7
							312.6,606.7 312.6,401 713.5,162.9 903.8,264.6 						"/>
						<polygon id="Fill-16" class="st0" points="796.8,791.6 767.2,811.1 767.2,352 599.9,262.6 631.5,246 796.8,334.3 						"/>
						<polygon id="Fill-27" class="st0" points="504.8,833.4 126.7,614.8 141.5,589.2 504.4,798.9 671.9,696.5 687.3,721.7
							"/>
						<polygon id="Clip-30" class="st0" points="126.7,614.8 504.8,833.4 687.3,721.7 671.9,696.5 504.4,798.9 141.5,589.2
							"/>
						<polygon id="Fill-32" class="st0" points="504.8,959.7 126.7,741.3 141.5,715.6 504.4,925.3 664.9,827.2 664.9,412.2
							497.5,322.8 529.7,306.4 694.5,394.5 694.5,843.8 						"/>
						<polygon id="Fill-21" class="st0" points="504.8,726.3 119.3,503.5 119.3,289.2 501.9,62.1 531.3,78.5 148.9,306 148.9,486.4
							504.4,691.9 671.9,589.4 687.3,614.6 						"/>
					</g>
				</g>
			</g>
		</g>
	</g>
</g>
</svg>
